# xmcd CD database file
#
# Track frame offsets:
#	150
#	16152
#	31355
#	49717
#	63420
#	76317
#	91035
#	114690
#	127880
#	149520
#	164210
#	181107
#
# Disc length: 2701 seconds
#
# Revision: 0
# Processed by: cddbd v1.4PL0 Copyright (c) Steve Scherf et al.
# Submitted via: CDex 1.50
#
DISCID=990a8b0c
DTITLE=Stan Martin - Cigarettes and Cheap Whiskey
DYEAR=2002
DGENRE=Country
TTITLE0=(Walking On) the Wild Side of Life
TTITLE1=Crying Over You
TTITLE2=Not On Me
TTITLE3=Maybe Someday
TTITLE4=Thinking You're Wrong
TTITLE5=Honky Tonk Fever
TTITLE6=Don't Tell Me It's Over
TTITLE7=Because Of You
TTITLE8=Baby I'm Gone
TTITLE9=Forever Ended With You
TTITLE10=I'm Leaving Town
TTITLE11=I Got The Roadhouse Blues
EXTD=YEAR: 2002
EXTT0=
EXTT1=
EXTT2=
EXTT3=
EXTT4=
EXTT5=
EXTT6=
EXTT7=
EXTT8=
EXTT9=
EXTT10=
EXTT11=
PLAYORDER=
